<svg width="26" height="25" viewBox="0 0 26 25" fill="none" xmlns="http://www.w3.org/2000/svg">
<path d="M12.8657 1.01319L9.4609 7.76845C9.29285 8.10187 8.95677 8.31392 8.58356 8.32512C6.75057 8.38013 1.37488 8.63946 1.37488 9.78885C1.37488 10.8955 5.02904 13.6845 6.50068 14.7628C6.85803 15.0246 7.00825 15.4837 6.8759 15.9065C6.30811 17.7202 4.93772 22.4398 5.80264 23.1833C6.87727 24.107 13 19 13 19" stroke="white" stroke-width="2" stroke-linecap="round" stroke-linejoin="round"/>
<path d="M13 1V19" stroke="white" stroke-width="2" stroke-linecap="round"/>
<path d="M8.12091 11.8125C7.5462 11.5856 7.00791 11.2977 6.4596 11.0148C6.07263 10.8152 5.63453 10.6889 5.2631 10.4661C4.99576 10.3057 4.63435 10.3488 4.35447 10.1962C4.26803 10.149 3.94343 10.0723 4.13856 10.2891C4.19072 10.3471 4.43954 10.4029 4.51041 10.4451C4.82952 10.635 5.03213 10.9368 5.29008 11.1948C5.42683 11.3315 5.61672 11.4443 5.76989 11.5696C5.99892 11.757 6.18963 12.0199 6.4446 12.1633C6.67079 12.2906 6.95014 12.3757 7.13732 12.5562C7.41038 12.8195 7.87601 12.9283 8.05494 13.2699C8.13753 13.4276 8.14244 13.5949 8.12391 13.7617C8.09326 14.0375 8.23521 14.3138 8.32482 14.5653C8.38197 14.7258 8.36825 14.8896 8.41778 15.0481C8.58502 15.5833 8.42211 16.2604 8.3908 16.8084C8.37118 17.1518 8.00319 17.4196 7.95598 17.75C7.93418 17.9026 7.905 18.0335 7.905 18.1938C7.905 18.2977 7.96579 18.6171 7.85102 18.5597" stroke="white" stroke-width="3" stroke-linecap="round" stroke-dasharray="10 10"/>
<path d="M7.85103 18.5597C7.75698 18.7008 7.74976 19.0689 7.74307 19.2494C7.73723 19.407 7.68909 19.5558 7.68909 19.7202C7.68909 19.8884 7.62731 20.0114 7.58114 20.173C7.55202 20.2749 7.35683 20.4334 7.37722 20.3949C7.50069 20.1617 7.54889 19.9901 7.77906 19.8432C8.12496 19.6224 8.47567 19.4109 8.82262 19.1924C8.87381 19.1602 8.96106 19.0593 9.02054 19.0485C9.1825 19.019 9.3564 19.107 9.47035 18.9645C9.50965 18.9154 9.60223 18.9136 9.65627 18.8596C9.95939 18.5564 10.2222 18.2157 10.5259 17.912C10.5857 17.8521 10.6184 17.8882 10.6818 17.852C10.8102 17.7787 10.9368 17.5624 11.0657 17.4621C11.2578 17.3128 10.9212 16.6667 10.8168 16.4666C10.5582 15.971 10.6808 15.3916 10.5229 14.8862C10.4723 14.7243 10.4743 14.5354 10.4419 14.3674C10.281 13.5324 10.1873 12.7521 9.82421 11.9624C9.66032 11.606 9.22686 11.0839 9.3504 10.667C9.39727 10.5088 9.73834 10.273 9.87818 10.1392C10.0381 9.98611 10.7541 9.08578 11.0177 9.20358C11.0949 9.23807 11.175 9.30282 11.2426 9.35352C11.2466 9.35651 11.3559 9.45648 11.3566 9.45547C11.3722 9.43208 11.1739 9.15903 11.1437 9.11362" stroke="white" stroke-width="3" stroke-linecap="round" stroke-dasharray="10 10"/>
<path d="M11.1436 9.11362C11.1681 8.50165 11.3267 7.9026 11.4015 7.29637C11.4156 7.18241 11.3595 7.07714 11.3595 6.95451C11.3595 6.78097 11.3056 6.60713 11.3056 6.44772C11.3056 6.15161 11.1789 7.0398 11.2246 7.33236C11.2824 7.70218 11.1893 8.10157 11.1556 8.47188C11.121 8.85328 11.1701 9.2332 11.0897 9.61141C10.8967 10.5181 10.975 11.6632 11.2396 12.5562C11.3605 12.9643 11.2017 13.5067 11.1976 13.9176C11.1955 14.1286 11.2868 14.9674 11.0357 15.0511" stroke="white" stroke-width="3" stroke-linecap="round" stroke-dasharray="10 10"/>
<path d="M8.28282 10.1932C8 10.1124 7.72122 10.011 7.46116 9.8723C7.32866 9.80164 7.15504 9.63414 6.99935 9.6234C6.9019 9.61668 6.92488 9.80947 6.82542 9.81532C6.69927 9.82274 6.7622 9.76135 6.83742 9.76135C7.11455 9.76135 7.41186 9.8792 7.67107 9.95627C8.07514 10.0764 8.51115 10.1913 8.88856 10.3851C9.12462 10.5063 9.19036 10.7541 9.20043 10.9908C9.21074 11.2329 9.44774 11.382 9.47032 11.5966C9.47815 11.6709 9.5137 11.7213 9.54829 11.7855C9.75203 12.1639 9.72449 12.9018 9.74621 13.2879C9.82634 14.7121 9.73757 16.1365 9.7702 17.5611C9.77401 17.7278 9.81886 17.9432 9.79419 18.1159C9.75462 18.3928 9.57361 18.666 9.50331 18.9405C9.42949 19.2288 9.35734 19.5254 9.30839 19.8192C9.30441 19.843 9.29619 19.7519 9.2724 19.7562C8.94684 19.8154 8.54504 20.1713 8.27082 20.3409C8.04767 20.479 7.96265 20.5634 7.851 20.5569C7.6855 20.5471 7.59978 20.6244 7.47315 20.7308C7.37204 20.8157 7.25917 20.9647 7.14929 21.0307C6.98806 21.1274 7.35709 20.7168 7.47315 20.5689C7.65064 20.3426 7.68083 20.0789 7.80002 19.8222C8.26772 18.8148 8.89142 17.8645 9.5123 16.9464C9.77078 16.5641 9.84817 16.5134 9.84817 16.1247C9.84817 15.7845 9.88187 15.5195 9.96512 15.1801C10.1379 14.4758 10.4886 13.6722 10.4359 12.934C10.3997 12.4263 10.1577 12.0097 9.96212 11.5696C9.90322 11.4371 10.0451 11.3987 10.0671 11.2997C10.095 11.1739 10.2558 11.1678 10.277 11.0298C10.2975 10.8964 10.2898 10.729 10.277 10.595C10.2469 10.2789 10.079 9.93748 9.98611 9.6324C9.92812 9.44186 9.63825 8.94744 9.63825 9.1466C9.63825 9.28927 10.0379 9.57121 10.145 9.6264C10.4199 9.76799 10.6185 9.9543 10.8527 10.1452C11.1566 10.3928 11.6264 10.7354 11.6804 11.1678C11.6986 11.313 11.7374 11.45 11.7374 11.5966C11.7374 11.655 11.7374 11.8889 11.7374 11.7045" stroke="white" stroke-width="3" stroke-linecap="round" stroke-dasharray="10 10"/>
</svg>
