<svg width="36" height="36" viewBox="0 0 36 36" fill="none" xmlns="http://www.w3.org/2000/svg">
<path d="M18 32.4C18 32.4 29.2695 22.3826 29.2695 14.8695C29.2695 8.64553 24.224 3.59998 18 3.59998C11.776 3.59998 6.73041 8.64553 6.73041 14.8695C6.73041 22.3826 18 32.4 18 32.4Z" fill="#90CAF9"/>
<path d="M21.6004 14.4002C21.6004 16.3884 19.9887 18.0002 18.0004 18.0002C16.0122 18.0002 14.4004 16.3884 14.4004 14.4002C14.4004 12.412 16.0122 10.8002 18.0004 10.8002C19.9887 10.8002 21.6004 12.412 21.6004 14.4002Z" fill="#90CAF9"/>
<path d="M18 32.4C18 32.4 29.2695 22.3826 29.2695 14.8695C29.2695 8.64553 24.224 3.59998 18 3.59998C11.776 3.59998 6.73041 8.64553 6.73041 14.8695C6.73041 22.3826 18 32.4 18 32.4Z" stroke="white" stroke-width="2"/>
<path d="M21.6004 14.4002C21.6004 16.3884 19.9887 18.0002 18.0004 18.0002C16.0122 18.0002 14.4004 16.3884 14.4004 14.4002C14.4004 12.412 16.0122 10.8002 18.0004 10.8002C19.9887 10.8002 21.6004 12.412 21.6004 14.4002Z" stroke="white" stroke-width="2"/>
</svg>
