<svg width="26" height="25" viewBox="0 0 26 25" fill="none" xmlns="http://www.w3.org/2000/svg">
<path d="M12.8658 1.01318C13.9474 1.01318 15.6478 5.80218 16.2547 7.62134C16.3918 8.03223 16.7721 8.31492 17.205 8.32892C19.1429 8.3916 24.2917 8.66397 24.2917 9.78885C24.2917 10.8925 20.6568 13.6697 19.1776 14.7542C18.8148 15.0202 18.666 15.4889 18.8078 15.9159C19.4121 17.7364 20.8584 22.4411 19.9289 23.1833C19.0054 23.9207 15.0347 20.9747 13.4703 19.7561C13.0954 19.4641 12.571 19.4637 12.1959 19.7556C10.6303 20.9738 6.66075 23.9208 5.80277 23.1833C4.93784 22.4398 6.30823 17.7202 6.87602 15.9065C7.00837 15.4837 6.85815 15.0246 6.50081 14.7628C5.02916 13.6845 1.375 10.8955 1.375 9.78885C1.375 8.66282 6.53433 8.39104 8.46757 8.32873C8.89751 8.31487 9.27629 8.03558 9.41563 7.6286C10.0365 5.81495 11.7827 1.01318 12.8658 1.01318Z" fill="#75A3C8" stroke="#75A3C8" stroke-width="2" stroke-linecap="round" stroke-linejoin="round"/>
</svg>
